<?xml version="1.0" encoding="UTF-8" standalone="no"?>
<svg width="72px" height="25px" viewBox="0 0 72 25" version="1.1" xmlns="http://www.w3.org/2000/svg" xmlns:xlink="http://www.w3.org/1999/xlink" xmlns:sketch="http://www.bohemiancoding.com/sketch/ns">
    <!-- Generator: Sketch 3.4 (15575) - http://www.bohemiancoding.com/sketch -->
    <title>Fill 1</title>
    <desc>Created with Sketch.</desc>
    <defs></defs>
    <g id="2" stroke="none" stroke-width="1" fill="none" fill-rule="evenodd" sketch:type="MSPage">
        <g id="Desktop-HD-Copy-20" sketch:type="MSArtboardGroup" transform="translate(-226.000000, -534.000000)" fill="#000000">
            <g id="Rectangle-187-Copy-+-Fill-1" sketch:type="MSLayerGroup">
                <path d="M238.138928,538.502234 C234.009437,538.502234 230.636845,541.985416 230.636845,546.233171 C230.636845,549.714838 233.334844,553.877009 238.138928,553.877009 C242.607406,553.877009 245.053231,550.820231 247.581736,546.233171 C245.135535,541.476458 242.775397,538.502234 238.138928,538.502234 M252.471131,546.233171 C254.663278,550.9043 256.939233,553.877009 261.659134,553.877009 C265.875814,553.877009 268.320512,550.9043 270.597218,546.233171 C268.320512,541.560148 266.043805,538.502234 261.659134,538.502234 C257.1076,538.502234 254.747462,541.560148 252.471131,546.233171 M275.485486,546.233171 C278.014742,550.989505 280.45944,553.877009 285.095909,553.877009 C289.142719,553.877009 292.598367,550.479789 292.598367,546.233171 C292.598367,541.815763 289.058536,538.502234 285.095909,538.502234 C280.543247,538.502234 278.098925,541.560148 275.485486,546.233171 M285.095909,558.38 C278.858454,558.38 275.485486,554.728302 273.126099,550.820231 C270.933951,554.813128 267.477552,558.38 261.659134,558.38 C255.506239,558.38 252.05059,554.642339 249.940747,550.820231 C247.581736,554.642339 244.125712,558.38 238.138928,558.38 C231.480181,558.38 226,552.773888 226,546.233171 C226,539.522043 231.480181,534 238.138928,534 C244.293327,534 247.665543,537.738039 250.026058,541.645732 C252.217829,537.653213 255.590422,534 261.659134,534 C267.645918,534 271.016631,537.738039 273.126099,541.645732 C275.569669,537.823244 279.026445,534 285.095909,534 C291.755783,534 297.23634,539.522043 297.23634,546.233171 C297.23634,552.858335 291.755783,558.38 285.095909,558.38" id="Fill-1" sketch:type="MSShapeGroup"></path>
            </g>
        </g>
    </g>
</svg>
